<?xml version="1.0" encoding="UTF-8" standalone="no"?>
<!-- Created with Inkscape (http://www.inkscape.org/) -->

<svg
   xmlns:dc="http://purl.org/dc/elements/1.1/"
   xmlns:cc="http://creativecommons.org/ns#"
   xmlns:rdf="http://www.w3.org/1999/02/22-rdf-syntax-ns#"
   xmlns:svg="http://www.w3.org/2000/svg"
   xmlns="http://www.w3.org/2000/svg"
   xmlns:sodipodi="http://sodipodi.sourceforge.net/DTD/sodipodi-0.dtd"
   xmlns:inkscape="http://www.inkscape.org/namespaces/inkscape"
   version="1.1"
   id="svg3055"
   width="1300"
   height="866"
   viewBox="0 0 1300 866"
   sodipodi:docname="note-musique.svg"
   inkscape:version="0.92.2 (5c3e80d, 2017-08-06)">
  <metadata
     id="metadata3061">
    <rdf:RDF>
      <cc:Work
         rdf:about="">
        <dc:format>image/svg+xml</dc:format>
        <dc:type
           rdf:resource="http://purl.org/dc/dcmitype/StillImage" />
        <dc:title></dc:title>
      </cc:Work>
    </rdf:RDF>
  </metadata>
  <defs
     id="defs3059" />
  <sodipodi:namedview
     pagecolor="#ffffff"
     bordercolor="#666666"
     borderopacity="1"
     objecttolerance="10"
     gridtolerance="10"
     guidetolerance="10"
     inkscape:pageopacity="0"
     inkscape:pageshadow="2"
     inkscape:window-width="1366"
     inkscape:window-height="705"
     id="namedview3057"
     showgrid="false"
     inkscape:zoom="0.30946882"
     inkscape:cx="892.66316"
     inkscape:cy="380.7848"
     inkscape:window-x="-8"
     inkscape:window-y="-8"
     inkscape:window-maximized="1"
     inkscape:current-layer="svg3055" />
  <path
     style="fill:#000000;stroke-width:0.51866436"
     d="m 734.79708,810.24935 c -5.16531,-0.96181 -9.66334,-2.44848 -12.65984,-4.18428 -3.87614,-2.24536 -8.94166,-6.636 -11.35709,-9.84399 -1.92622,-2.55827 -5.68576,-9.5505 -5.68576,-10.57476 0,-0.30325 -0.28482,-1.37971 -0.63294,-2.39214 -3.71345,-10.79981 -0.8655,-27.09631 6.29744,-36.03507 6.47458,-8.07975 15.13897,-10.1476 22.78187,-5.43714 2.24531,1.38384 5.14282,4.15353 6.62622,6.33393 1.78776,2.62776 3.18583,5.38809 3.64466,7.19592 0.30022,1.18291 0.77789,2.51974 1.06147,2.97073 0.32554,0.5177 0.51563,3.85577 0.51563,9.05459 v 8.23459 l -1.69853,3.79708 c -1.60581,3.58984 -2.09844,4.35526 -5.03829,7.82826 -1.56988,1.85458 -6.66183,5.11203 -7.65579,4.8976 -0.43755,-0.0944 -0.84316,0.2812 -0.93827,0.86883 -0.22601,1.39643 2.87028,3.10367 7.16024,3.94801 2.67799,0.52708 4.00972,0.47686 7.15007,-0.2696 6.90782,-1.642 11.65548,-4.71079 16.1868,-10.46282 3.1085,-3.94591 3.38172,-4.51069 4.84874,-10.02319 1.53096,-5.75273 1.55507,-6.00176 1.58382,-16.35667 0.025,-9.00253 -0.12665,-11.39727 -1.05429,-16.64875 -0.59592,-3.37356 -1.26151,-7.31668 -1.47909,-8.7625 -0.21758,-1.44581 -0.59764,-3.68025 -0.84458,-4.96541 -0.24694,-1.28517 -0.99833,-5.35973 -1.66975,-9.05458 -0.67142,-3.69486 -1.53616,-7.86557 -1.92164,-9.26825 l -0.70087,-2.55032 -2.12896,0.36029 c -1.17093,0.19816 -3.63137,0.52941 -5.46764,0.7361 -1.83627,0.2067 -3.3386,0.53502 -3.3385,0.72962 2.6e-4,0.4958 -8.73949,-0.24369 -12.89437,-1.09104 -1.89959,-0.3874 -5.00801,-1.24078 -6.9076,-1.89641 -1.89959,-0.65563 -3.92313,-1.32066 -4.49675,-1.47786 -0.57362,-0.15719 -1.15572,-0.51729 -1.29357,-0.80022 -0.13785,-0.28293 -0.55481,-0.51441 -0.9266,-0.51441 -1.24291,0 -8.6584,-4.93182 -13.37916,-8.89807 -7.48467,-6.28842 -15.2544,-16.18218 -19.8494,-25.27568 -0.81175,-1.60646 -1.63679,-3.1909 -1.8334,-3.52098 -0.19663,-0.33008 -0.76997,-1.64445 -1.2741,-2.92083 -0.50413,-1.27638 -1.02792,-2.45213 -1.16397,-2.61277 -0.13606,-0.16065 -0.62523,-1.47503 -1.08704,-2.92084 -0.46181,-1.44581 -1.15517,-3.54881 -1.54078,-4.67333 -2.74315,-7.99941 -4.13389,-14.92567 -5.45428,-27.16375 -0.17332,-1.60646 -0.54798,-3.11396 -0.83256,-3.35001 -0.36677,-0.30422 -0.34983,-0.43178 0.0582,-0.43813 0.66355,-0.0103 0.79593,-3.27228 0.15325,-3.77614 -0.25398,-0.19912 -0.23945,-1.17163 0.0364,-2.43919 0.25235,-1.15943 0.32197,-2.79979 0.1547,-3.64525 -0.16728,-0.84547 -0.13189,-1.31696 0.0787,-1.04775 0.21054,0.2692 0.61388,-2.22865 0.8963,-5.55078 0.62934,-7.4031 2.68967,-16.4494 6.0323,-26.48608 2.18605,-6.56392 3.6755,-10.19183 8.12027,-19.77892 0.46797,-1.00938 1.62639,-3.14962 2.57427,-4.75608 0.94788,-1.60646 2.74089,-4.72436 3.98447,-6.92867 1.24358,-2.20431 3.14821,-5.26723 4.23252,-6.80648 1.08431,-1.53926 2.60075,-3.81029 3.36987,-5.04674 0.76911,-1.23646 5.60285,-7.76929 10.74165,-14.51741 10.73704,-14.09962 11.77765,-15.59176 11.77765,-16.88805 0,-0.52179 -0.38625,-2.84971 -0.85835,-5.17317 -0.47202,-2.32346 -1.11001,-6.19604 -1.4177,-8.60572 -0.30769,-2.40969 -0.85395,-6.1879 -1.21393,-8.39604 -0.35998,-2.20812 -0.65945,-5.09975 -0.6655,-6.42583 -0.006,-1.32608 -0.21461,-3.46255 -0.46349,-4.74772 -1.20961,-6.2462 -0.93952,-31.02899 0.44566,-40.89166 0.22563,-1.60646 0.63855,-4.73232 0.91761,-6.94637 1.38316,-10.9738 5.45415,-24.92452 10.03453,-34.38687 3.39997,-7.02384 12.82769,-17.95967 15.48293,-17.95967 0.39011,0 0.83737,-0.26288 0.99391,-0.58417 0.45981,-0.94378 2.89429,-0.67198 4.75256,0.53061 2.75624,1.78372 7.48542,10.20754 11.18053,19.91522 1.85744,4.87986 4.96086,15.09611 5.50106,18.10917 3.13258,17.47266 4.04131,29.89071 3.23521,44.21024 -0.50624,8.99266 -0.87247,12.27873 -2.13673,19.17184 -0.41249,2.24904 -0.91049,5.14066 -1.10665,6.42583 -0.76527,5.01355 -4.82523,19.04699 -7.52064,25.99542 -4.80769,12.39361 -10.75321,23.58689 -15.98001,30.08458 -4.52838,5.62947 -4.89285,6.60892 -4.00229,10.75554 0.38561,1.79545 0.91935,4.71027 1.18609,6.47737 2.17742,14.42472 4.17492,25.90506 4.60148,26.44615 0.21709,0.27539 3.4333,0.60987 7.14716,0.7433 6.13021,0.22025 7.16356,0.41865 11.21399,2.15304 15.43324,6.60852 26.71519,23.15649 30.43808,44.64551 1.9828,11.44495 2.30115,18.5828 1.2335,27.657 -0.86502,7.35194 -3.12187,16.89518 -4.53482,19.17576 -0.45872,0.7404 -1.56678,3.27092 -3.36987,7.6959 -0.45822,1.12452 -2.80964,4.5419 -5.22539,7.59417 -4.71445,5.95666 -6.38154,7.78123 -7.37097,8.0673 -0.34442,0.0996 -1.19743,0.69702 -1.89559,1.32765 -0.69816,0.63063 -2.73318,2.06429 -4.52227,3.18591 -2.98676,1.87247 -3.50728,2.5095 -3.28239,4.01709 1.73452,11.6281 2.8865,18.61273 3.86223,23.41746 0.26099,1.28517 0.44276,2.51539 0.40394,2.73384 -0.0388,0.21845 0.34189,2.84566 0.84604,5.83826 3.68067,21.84865 3.6757,34.82695 -0.0175,45.75662 -4.87274,14.42019 -15.83602,24.32088 -29.70897,26.82949 -5.52013,0.99819 -6.87559,1.0292 -11.04547,0.25274 z M 752.15094,696.928 c 0.42658,-0.28097 1.51453,-0.51085 2.41766,-0.51085 2.03739,0 3.60929,-1.7704 3.24957,-3.65993 -0.42675,-2.24166 -2.10687,-12.84773 -2.52026,-15.90965 -0.21689,-1.60646 -0.62204,-4.23521 -0.90034,-5.84166 -0.27829,-1.60646 -0.71176,-4.23521 -0.96326,-5.84167 -0.25149,-1.60646 -0.89452,-5.68102 -1.42895,-9.05458 -0.53443,-3.37357 -1.14012,-7.31669 -1.34597,-8.7625 -0.20585,-1.44582 -0.69598,-4.60032 -1.08919,-7.01 -0.3932,-2.40969 -0.9404,-6.22138 -1.216,-8.47042 -0.27559,-2.24904 -0.69292,-4.3389 -0.92738,-4.64412 -0.23447,-0.30523 -0.42631,-1.34903 -0.42631,-2.31957 0,-0.97053 -0.25434,-3.15239 -0.56522,-4.84858 -0.51886,-2.83105 -0.67257,-3.08398 -1.87418,-3.08398 -2.99486,0 -11.69647,10.16322 -14.00437,16.35667 -2.00375,5.37723 -3.12858,11.86768 -2.52227,14.55385 0.26006,1.15219 0.71586,3.27783 1.01288,4.72365 1.64189,7.99239 5.98358,15.2497 11.19824,18.71831 5.03745,3.35075 6.02345,5.45788 3.79603,8.11234 -0.979,1.16671 -1.40521,1.28068 -3.45328,0.92335 -1.28504,-0.22419 -2.45251,-0.64587 -2.59438,-0.93706 -0.14186,-0.2912 -0.85013,-0.52945 -1.57391,-0.52945 -0.72378,0 -1.38504,-0.19715 -1.46947,-0.43812 -0.0844,-0.24097 -1.29325,-1.20324 -2.68629,-2.13837 -13.41743,-9.00705 -21.22352,-29.99903 -18.19813,-48.93802 0.80526,-5.04092 1.50886,-8.28736 2.31885,-10.69923 1.6143,-4.80687 4.88396,-12.42026 6.48445,-15.09903 4.07735,-6.82432 10.45033,-13.59778 15.2487,-16.20692 l 2.06892,-1.12498 -0.27167,-2.76995 c -0.14942,-1.52347 -0.61035,-4.87295 -1.0243,-7.44329 -0.73789,-4.58171 -0.99928,-6.37475 -1.95862,-13.43583 -1.17197,-8.62609 -1.79432,-9.34457 -4.92731,-5.68834 -1.02898,1.20084 -3.57552,4.1549 -5.65897,6.56459 -3.73123,4.3155 -11.72559,15.32709 -14.82883,20.42552 -0.87321,1.43465 -1.96594,3.14333 -2.42827,3.79709 -1.33508,1.88784 -4.91573,8.87442 -4.91573,9.59157 0,0.35841 -0.1618,0.65165 -0.35955,0.65165 -0.19775,0 -0.60758,0.72291 -0.91073,1.60646 -0.30315,0.88355 -1.07826,2.65796 -1.72248,3.94313 -0.64422,1.28516 -1.2929,2.73098 -1.44151,3.21291 -0.1486,0.48194 -0.89706,2.84776 -1.66323,5.25739 -1.38834,4.36631 -3.18212,11.86359 -3.03915,12.70238 0.0414,0.24281 -0.19919,1.23011 -0.5346,2.19398 -0.42802,1.23001 -0.61893,4.88744 -0.64033,12.2675 l -0.0305,10.515 1.74977,6.94094 c 0.96238,3.81752 2.20609,7.89208 2.76382,9.05458 0.55774,1.16251 1.3194,2.90227 1.69259,3.86615 0.37319,0.96387 1.61185,3.21128 2.75259,4.99423 1.14073,1.78296 2.48852,3.97086 2.99508,4.86199 1.14492,2.01415 8.8004,10.20399 10.3614,11.08466 0.6332,0.35722 1.25488,0.78629 1.38152,0.95348 0.23828,0.31457 5.97334,3.85852 7.59836,4.69536 0.50656,0.26086 1.85354,0.7754 2.9933,1.14342 1.13975,0.36801 2.79757,0.95386 3.68405,1.30188 3.652,1.43373 18.33599,1.71667 20.34715,0.39207 z m 19.17337,-9.42881 c 4.80117,-4.12516 8.03913,-9.8947 10.32841,-18.4036 1.25919,-4.68022 1.37629,-5.7964 1.42363,-13.5701 0.0383,-6.29103 -0.14318,-9.31898 -0.70541,-11.76846 -0.69237,-3.01646 -2.87096,-9.30973 -3.71169,-10.72196 -5.93793,-9.97424 -8.16273,-12.28765 -15.08049,-15.68119 -3.40715,-1.67139 -6.01139,-2.25435 -6.91301,-1.54748 -0.51312,0.40228 -0.51657,1.20572 -0.0204,4.76708 0.32816,2.35579 0.772,5.20332 0.98631,6.32784 0.37588,1.97234 2.25998,13.77968 6.61827,41.47584 2.95341,18.76828 3.07219,19.45793 3.54934,20.60823 0.46471,1.12033 0.51717,1.09822 3.52511,-1.4862 z M 741.17342,490.64446 c 4.50133,-6.30134 5.39594,-7.75075 8.92381,-14.45813 5.59189,-10.63159 9.83301,-21.93206 12.3871,-33.00541 1.11254,-4.82347 1.15015,-20.60581 0.0564,-23.68143 -2.66632,-7.4979 -9.26623,-7.55475 -14.92313,-0.12855 -2.63224,3.45554 -6.66807,13.17347 -8.43257,20.30498 -0.55647,2.24904 -1.18604,4.51415 -1.39904,5.03358 -0.66657,1.62547 -2.71423,15.14001 -3.26236,21.53155 -0.28824,3.36095 -0.40394,8.09079 -0.25712,10.51076 0.3584,5.90742 1.05447,12.96076 1.38544,14.03869 0.14796,0.48194 0.47728,1.59916 0.7318,2.48271 0.25453,0.88355 0.7556,1.60646 1.1135,1.60646 0.3579,0 2.01216,-1.90585 3.67613,-4.23521 z M 545.00203,797.35373 c -3.97855,-0.5035 -7.66368,-2.58135 -10.22362,-5.76456 -1.01268,-1.25924 -2.08691,-2.28952 -2.38717,-2.28952 -0.30027,0 -0.7832,-0.28013 -0.64691,-0.73066 -0.29837,-0.59763 -0.12586,-0.3788 -0.29837,-0.59763 -0.1725,-0.21883 -0.24654,-0.40289 -0.2782,-0.6974 -0.13992,-1.30152 0.41571,-0.82714 0,0 -0.30761,0.61201 -0.50438,-1.21961 -0.33077,-2.64765 0.1428,-1.17454 -0.0554,-3.1204 -0.46577,-4.57274 -0.60396,-2.13752 -1.44697,-9.99423 -1.38974,-12.95225 0.31479,-16.27045 6.28055,-35.34938 15.34362,-49.07 5.49236,-8.31492 14.02514,-16.39141 21.25417,-20.11761 3.7463,-1.93103 12.65557,-4.45159 17.14953,-4.85183 1.97066,-0.17552 3.69466,-0.54827 3.83112,-0.82835 0.20877,-0.42851 -4.27304,-15.1668 -9.47505,-31.15846 -0.73161,-2.24904 -2.49332,-7.90085 -3.91494,-12.55958 -1.4216,-4.65873 -3.0146,-9.65335 -3.53998,-11.09917 -0.52539,-1.44581 -4.97337,-15.37818 -9.8844,-30.96083 -4.91103,-15.58264 -9.13452,-28.78854 -9.38554,-29.34644 -0.25102,-0.55791 -0.45641,-1.28367 -0.45641,-1.61283 0,-0.32915 -0.39719,-1.71281 -0.88267,-3.0748 -0.48547,-1.36199 -4.747,-14.70003 -9.47008,-29.64009 -8.26285,-26.13711 -9.58006,-30.33699 -11.72566,-37.38666 -1.4851,-4.87953 -3.74526,-11.85376 -4.20303,-12.96937 -0.22431,-0.54667 -1.16272,-3.43829 -2.08534,-6.42583 -0.92263,-2.98753 -2.17052,-6.81977 -2.7731,-8.51608 -0.60257,-1.69629 -1.09559,-3.41812 -1.09559,-3.82629 0,-0.40815 -0.16581,-0.99183 -0.36848,-1.29706 -0.20266,-0.30522 -0.80707,-2.00077 -1.34313,-3.76787 -2.86901,-9.45754 -7.28095,-23.4602 -8.24208,-26.15877 -0.60416,-1.6963 -1.09847,-3.30656 -1.09847,-3.57836 0,-0.27179 -0.51808,-1.98018 -1.15127,-3.79642 -0.6332,-1.81624 -1.15127,-3.44548 -1.15127,-3.62052 0,-1.04418 1.83188,0.69 5.61654,5.31699 2.36523,2.89162 6.16142,7.3605 8.436,9.93083 2.27459,2.57033 4.75771,5.3978 5.51806,6.28326 3.45985,4.0291 9.19984,9.93552 16.11868,16.58602 4.05708,3.89974 13.90613,12.59991 14.97828,13.23108 0.37342,0.21984 2.64761,1.98782 5.05376,3.92887 2.40615,1.94104 4.68566,3.70487 5.06557,3.91962 0.37993,0.21475 2.24498,1.59331 4.14457,3.06348 1.89959,1.47016 7.39113,5.13307 12.20343,8.13981 8.52575,5.3269 13.288,8.57259 17.03875,11.61267 1.01312,0.82116 2.67094,2.1552 3.68406,2.96455 1.01311,0.80934 2.72274,2.52722 3.79918,3.8175 1.07643,1.29029 1.95715,2.1449 1.95715,1.89914 0,-0.56596 1.07406,0.39464 4.14657,3.70858 12.54852,13.5345 19.31739,27.1911 25.0453,50.53041 2.35622,9.60081 3.38087,24.61018 2.62313,38.42454 -0.30353,5.53371 -0.73072,11.11279 -0.94931,12.39796 -0.21858,1.28516 -0.60638,3.78248 -0.86175,5.54958 -1.72884,11.96297 -3.51734,20.92317 -4.39981,22.04261 -0.17581,0.22302 -0.21503,-0.63649 -0.0872,-1.91002 0.42593,-4.24233 0.28566,-35.45811 -0.18877,-42.00847 -1.59482,-22.01948 -5.50408,-40.37099 -11.34593,-53.26191 -0.97836,-2.15891 -2.12495,-4.69129 -2.54797,-5.62752 -2.32262,-5.1403 -10.21211,-16.57888 -14.2031,-20.59237 -13.73427,-13.81172 -33.47479,-21.33562 -59.97524,-22.85899 -3.73586,-0.21475 -6.79248,-0.26393 -6.79248,-0.10928 0,0.29336 1.94604,6.5031 2.9888,9.53721 0.83989,2.44378 6.74465,21.08232 9.90104,31.25291 2.48301,8.00083 5.53472,17.57115 6.42646,20.15375 0.78269,2.26678 10.14031,32.21655 12.13754,38.84708 1.11294,3.69486 6.32228,20.25598 11.57627,36.8025 5.25401,16.54652 10.27984,32.58189 11.16854,35.63416 0.88868,3.05228 2.6426,8.79116 3.89757,12.75309 2.73037,8.6197 4.99321,17.23921 4.99321,19.01984 0,0.71 0.18894,1.54064 0.41985,1.84586 0.77449,1.02371 1.53903,13.75732 1.20831,20.12454 -0.54238,10.44201 -1.98809,16.68268 -5.88678,25.41125 -3.18452,7.12966 -4.53967,9.59204 -7.54537,13.71033 -2.43754,3.33983 -10.28941,11.70092 -10.98828,11.70092 -0.18137,0 -1.18872,0.73011 -2.23856,1.62247 -1.04985,0.89235 -3.04857,2.31876 -4.4416,3.1698 -10.42429,6.36844 -18.15087,8.47161 -27.0059,7.35098 z m 381.82636,-21.54206 c -1.97789,-0.63684 -5.76938,-1.93504 -8.74964,-2.99586 -5.75728,-2.04931 -12.63734,-8.71738 -16.9802,-16.45693 -4.15754,-7.4093 -5.85052,-13.39622 -5.85603,-20.70844 -0.008,-8.91941 2.18617,-18.057 6.25193,-26.05192 3.9811,-7.82837 8.85258,-12.78472 15.36553,-15.63336 2.62439,-1.14789 3.94719,-1.33365 9.27765,-1.30292 7.06485,0.0407 9.78584,0.89659 16.34801,5.14202 6.33161,4.09627 10.74872,8.46754 17.63513,17.45227 1.66229,2.16872 3.24427,3.93443 3.51547,3.92381 0.27128,-0.0106 1.05412,-1.52215 1.7396,-3.35896 0.68562,-1.83681 3.38993,-8.59714 6.00965,-15.02298 2.6198,-6.42583 7.5301,-18.51808 10.91176,-26.87166 3.38174,-8.35358 7.04395,-17.35452 8.13826,-20.00208 1.21318,-2.93528 1.87424,-5.19528 1.69389,-5.79145 -0.19404,-0.64153 -0.11726,-0.83776 0.22337,-0.5707 0.54386,0.42641 2.21502,-2.98195 1.75077,-3.57084 -0.14139,-0.17934 0.0498,-0.61494 0.42475,-0.968 0.375,-0.35307 2.21579,-4.49898 4.09056,-9.21316 3.27235,-8.22813 3.37925,-8.62566 2.67175,-9.93083 -0.5865,-1.08162 -0.5973,-1.21714 -0.053,-0.66281 0.8708,0.88689 1.3357,0.44448 2.5767,-2.45251 0.7907,-1.84582 0.8969,-2.5859 0.503,-3.505 -0.4394,-1.02535 -3.8337,-6.51993 -4.50894,-7.29887 -0.13924,-0.16064 -1.51998,-2.26364 -3.06829,-4.67333 -1.54822,-2.40969 -3.19864,-4.90902 -3.66741,-5.55408 -0.46884,-0.64506 -2.40616,-3.53668 -4.3052,-6.42583 -1.89911,-2.88915 -3.56438,-5.38444 -3.70071,-5.54509 -0.13633,-0.16065 -1.51462,-2.26365 -3.06285,-4.67333 -1.5483,-2.40969 -3.20208,-4.907 -3.67514,-5.54959 -0.47306,-0.64258 -2.19872,-3.27133 -3.8349,-5.84166 -1.6361,-2.57033 -3.73087,-5.72483 -4.65501,-7.01 -0.92415,-1.28517 -2.66542,-3.91392 -3.86957,-5.84167 -1.20415,-1.92775 -2.42162,-3.76787 -2.70546,-4.08916 -0.28376,-0.3213 -1.24127,-1.78729 -2.12776,-3.25777 -2.55902,-4.24484 -5.37072,-8.13348 -5.88098,-8.13348 -0.41825,0 -1.40822,2.26658 -5.48577,12.55958 -1.6534,4.17366 -1.61138,4.06724 -4.26248,10.80708 -1.32701,3.37356 -3.04724,7.711 -3.82273,9.63875 -0.77557,1.92775 -2.44933,6.13375 -3.71962,9.34667 -1.27021,3.21291 -2.47658,6.23598 -2.68073,6.71791 -0.20422,0.48194 -2.01133,4.95082 -4.01577,9.93084 -2.00445,4.98002 -5.01073,12.44008 -6.68051,16.5779 -1.66986,4.13783 -2.90348,7.81808 -2.74143,8.17834 0.16205,0.36025 0.1276,0.46342 -0.0765,0.22926 -0.49617,-0.5693 -13.2377,31.57179 -12.83966,32.38874 0.17116,0.35133 0.11375,0.48397 -0.1276,0.29479 -0.24128,-0.1892 -2.6175,5.0934 -5.28048,11.73911 l -4.84171,12.0831 -3.65539,2.45673 c -3.62202,2.43425 -5.73937,3.48485 -12.86557,6.38364 -3.14349,1.27871 -4.8024,1.54244 -11.30572,1.79739 -7.56388,0.29653 -7.65557,0.28502 -12.09173,-1.51759 -4.67117,-1.89811 -11.35502,-5.80377 -12.57026,-7.34532 -0.38953,-0.49423 -0.87375,-0.8986 -1.07597,-0.8986 -0.74029,0 -7.24185,-8.64068 -8.93201,-11.87078 -2.10406,-4.02112 -3.82137,-8.8241 -4.4839,-12.5406 -1.04316,-5.85166 -0.29424,-15.91892 1.63884,-22.02987 1.88526,-5.95984 2.54214,-7.66462 3.42879,-8.89868 0.40787,-0.56768 1.15182,-1.8516 1.65324,-2.85316 3.04149,-6.07525 9.19137,-11.8001 15.14477,-14.09806 3.2625,-1.25929 4.13736,-1.41708 8.33173,-1.50267 4.47602,-0.0913 7.49094,0.34633 8.87947,1.28899 0.57224,0.3885 1.24339,0.54726 1.49144,0.35279 0.24805,-0.19447 0.45099,-0.0752 0.45099,0.26507 0,0.34025 0.36265,0.61885 0.80589,0.6191 1.18781,5.9e-4 6.05657,3.0473 8.90928,5.57497 5.47772,4.85361 8.20446,7.70416 12.35894,12.92045 2.38954,3.00023 4.56545,5.44029 4.83535,5.42237 0.26991,-0.0179 2.73118,-5.73545 5.46962,-12.70562 2.73845,-6.97018 6.64775,-16.74761 8.68733,-21.72763 2.03958,-4.98002 5.21143,-12.74853 7.04854,-17.26337 1.83711,-4.51483 3.55826,-8.72083 3.82479,-9.34666 0.26661,-0.62584 1.97383,-4.94957 3.7941,-9.6083 1.82012,-4.65873 3.46679,-8.73329 3.65922,-9.05458 0.19244,-0.32129 3.15287,-7.55035 6.57878,-16.06458 3.42591,-8.51423 7.1032,-17.58342 8.17171,-20.15375 2.61191,-6.28276 8.48478,-20.64756 13.255,-32.42125 8.47513,-20.91779 9.38718,-23.10123 9.96082,-23.84473 0.48883,-0.63357 1.4948,0.4542 5.67232,6.13374 4.78882,6.5105 5.86552,8.05571 10.5415,15.12867 1.04517,1.58092 4.88221,7.34328 8.52681,12.80524 9.98999,14.97138 18.34779,27.7539 22.49759,34.40757 0.3807,0.61055 1.0427,1.58093 1.4712,2.15639 0.4284,0.57547 2.0143,3.01847 3.5243,5.4289 2.8827,4.60156 9.292,14.46346 9.7249,14.96338 0.1391,0.16065 0.8004,1.21215 1.4697,2.33667 0.6693,1.12452 1.6006,2.57925 2.0697,3.23274 1.8837,2.62443 4.6408,7.10753 5.59,9.08958 l 1.0054,2.0994 -1.1561,3.1581 c -0.6359,1.73695 -1.3539,3.60594 -1.5955,4.1533 -0.2861,0.6481 -0.2741,1.12481 0.034,1.36677 0.2816,0.22076 0.044,0.85025 -0.5851,1.55108 -0.5824,0.64874 -1.0071,1.4138 -0.9438,1.70011 0.063,0.28632 -0.059,0.52058 -0.2722,0.52058 -0.5135,0 -2.8363,5.44694 -2.8363,6.65093 0,0.51878 -0.2293,0.94324 -0.5097,0.94324 -0.2804,0 -0.3864,0.40796 -0.2355,0.90659 0.1777,0.58776 0.089,0.76107 -0.2536,0.49282 -0.359,-0.28144 -0.4446,-0.0106 -0.2679,0.84672 0.1429,0.69326 0.095,1.13094 -0.1074,0.97261 -0.3721,-0.2918 -2.065,2.54406 -1.7542,2.93848 3.1283,-7.10046 -3.2907,6.99927 0.7571,1.20578 -0.1643,-0.28778 -0.6538,-0.35048 -1.0876,-0.13931 -0.5713,0.27809 -0.7336,0.86132 -0.5884,2.11554 0.1472,1.27172 0.057,1.58144 -0.3368,1.16617 -0.3744,-0.39421 -0.6984,-0.11625 -1.0699,0.9179 -0.7151,1.99098 -0.6748,2.58276 0.2732,4.01112 0.7938,1.19623 0.7916,1.19909 -0.1513,0.19204 -1.097,-1.1715 -1.5755,-1.29218 -1.5755,-0.39734 0,0.34373 -0.6217,1.77119 -1.3815,3.17213 -1.5435,2.84575 -1.7634,3.75624 -0.6168,2.55423 0.6975,-0.73133 0.7097,-0.68964 0.138,0.47486 -0.3446,0.70212 -0.7484,1.18111 -0.8973,1.06442 -0.1488,-0.11669 -0.5519,0.62322 -0.8959,1.64424 -0.344,1.02103 -0.8815,2.25073 -1.1945,2.73267 -0.3131,0.48193 -0.7253,1.53343 -0.9161,2.33666 -0.1907,0.80323 -0.4905,1.59186 -0.6662,1.7525 -0.1756,0.16065 -0.6354,1.08071 -1.0218,2.04458 -0.3863,0.96388 -1.7955,4.38125 -3.1316,7.59417 -1.336,3.21292 -3.515,8.47042 -4.8422,11.68333 -1.3271,3.21292 -3.5037,8.47042 -4.8367,11.68334 -3.1191,7.51709 -6.9101,16.73601 -10.8101,26.28749 -1.70545,4.1768 -3.98699,9.69717 -5.07005,12.2675 -1.08305,2.57034 -2.94925,7.03921 -4.14712,9.93084 -6.38435,15.411 -7.94001,19.19447 -10.08836,24.53499 -1.29241,3.21292 -2.46142,5.97311 -2.5976,6.13375 -0.13625,0.16065 -1.62156,3.70946 -3.3006,7.88625 -1.67912,4.17679 -3.58543,8.77711 -4.23631,10.22292 -1.12852,2.50694 -1.38028,3.15532 -1.87117,4.81937 -0.1185,0.40162 -0.80198,2.04459 -1.51884,3.65105 -1.07647,2.41215 -1.86099,3.29742 -4.50483,5.08324 -4.35326,2.94047 -9.33306,5.40045 -14.02321,6.92726 -4.46266,1.45274 -15.50784,2.09299 -18.65053,1.0811 z m 88.67971,-183.56624 2.8942,-7.20006 -5.7243,-8.71848 c -3.1483,-4.79516 -6.4489,-9.90142 -7.3346,-11.34723 -0.8857,-1.44581 -2.0533,-3.28594 -2.5947,-4.08916 -1.6717,-2.48022 -6.75929,-10.21455 -8.45602,-12.85522 -0.88648,-1.3796 -2.66672,-4.11192 -3.95607,-6.07179 -1.28942,-1.95988 -5.50552,-8.4266 -9.3692,-14.37049 -3.86368,-5.9439 -7.78216,-11.96563 -8.70784,-13.38163 -0.92567,-1.416 -1.95376,-3.05896 -2.28475,-3.65104 -1.01952,-1.82383 -1.68494,-1.22835 -3.20354,2.86663 -0.80428,2.16872 -2.11398,5.43876 -2.91045,7.26677 l -1.44803,3.32364 2.62233,3.97844 c 1.44229,2.18814 3.09018,4.63563 3.66182,5.43885 0.57165,0.80323 2.03859,3.03767 3.25973,4.96542 1.22122,1.92775 2.48676,3.89931 2.81239,4.38125 3.34837,4.95568 17.60965,26.52514 18.92372,28.62098 3.1743,5.06301 18.55721,28.04318 18.77211,28.04318 0.082,0 1.4515,-3.24002 3.0432,-7.20006 z m 11.4876,20.52431 c -0.01,-0.5433 0.2001,-1.15028 0.4534,-1.34885 0.5828,-0.45693 0.5828,0.3164 0,1.46041 -0.3847,0.75515 -0.4473,0.73973 -0.4534,-0.11156 z"
     id="path3065"
     inkscape:connector-curvature="0"
     sodipodi:nodetypes="scsscsssccsccscccssssssccccsssssscssscccsscccccccsscscscssssccscsssccsssssssssscssscssccsscccssscsscscsssccscssssscscscsssssccssssscsscscsccscsccsscccsccccsscsscccscccssscssscsccssscsccscccsssscsssssscsscccssscssssscsccccscsssssscsscsscssscscssccscsssscsscsscsscsscccsccccccsccccsccssssccscsccsscscscccscsssscssssccssccscsscsscccccccccccccccccccccccssssccccccccccccscccsscscsscccccccccsccscccccsccccccccccsssssccccc" />
</svg>
